Patient4_TMGait_0pt3_03_right_06_EMG.mot
version=1
nRows=40
nColumns=33
inDegrees=no
endheader
time	1LAddLong	2LGlutMax	3LGlutMed	4LIliopsoas	5LSemiMemb	6LBicFemLong	7LRecFem	8LVastMed	9LVastLat	10LGasMed	11LTibAnt	12lTibPost	13LPeroneusLong	14LSol	15LExtDigLong	16LFlexDigLong	17RAddLong	18RGlutMax	19RGlutMed	20RIliopsoas	21RSemiMemb	22RBicFemLong	23RRecFem	24RVastMed	25RVastLat	26RGasMed	27RTibAnt	28RTibPost	29RPeroneusLong	30RSol	31RExtDigLong	32RFlexDigLong
13.298	0.019073	-0.15732	-0.047607	0.006561	0.00946	0.10178	0.001984	-0.014496	0.002747	-0.14923	-0.009308	-0.034332	-0.31494	0.039825	-0.062561	-0.098419	0.014038	-0.33569	-0.22736	0.22537	0.035858	-0.040436	0.13611	0.031128	-0.004272	-0.017548	-0.092316	-0.000916	-0.15259	0.097504	-0.002899	-0.009003
13.299	0.009766	-0.069427	0.04776	0.001221	0.003204	0.039368	-0.045166	-0.01236	-0.036926	-0.022583	-0.011444	-0.040588	-0.16525	0.13687	-0.054321	-0.024261	-0.007782	-0.33585	-0.2829	0.18295	0.045013	-0.021667	0.092468	0.005646	-0.02533	-0.007019	-0.14969	-0.000763	-0.16251	0	0.00351	-0.001678
13.3	-0.006409	-0.065765	0.18433	0.011902	0.003204	-0.066986	0.035095	-0.004272	0.017395	-0.05661	-0.010223	-0.032654	-0.10544	0.10803	-0.044861	0.0354	-0.025635	-0.26306	-0.36484	0.091705	0.04364	-0.032806	0.11429	0.000153	-0.038147	-0.002899	0.072632	0	0.014191	-0.066376	-0.003357	-0.003204
13.301	0.000763	-0.061798	0.03952	-0.005646	-0.000916	0.097504	0.004578	0.009003	0.026703	-0.037384	0.001068	-0.02655	-0.1622	0.40726	0	0.003204	-0.052643	-0.23727	-0.48752	0.028687	0.046234	-0.014648	0.090179	-0.00946	-0.036011	-0.003815	-0.014954	-0.002747	0.081635	0.03479	-0.000458	-0.003052
13.302	0.005188	-0.079193	-0.017548	-0.003052	0.006104	0.17777	0.06485	0.007324	-0.13687	-0.088806	0.001984	-0.009003	-0.31845	0.55588	-0.005188	-0.011139	-0.04715	-0.21057	-0.25284	-0.016174	0.045471	-0.012054	0.15656	0.042725	-0.03006	-0.001373	0.015106	0.003967	0.19699	-0.027161	-0.001678	-0.011597
13.303	0.015564	-0.018616	0.15137	-0.002899	0.00824	0.15152	0.049133	0.007324	-0.1593	-0.15884	-0.005798	-0.025482	-0.02655	0.13534	-0.050659	0.006409	-0.037079	-0.15442	-0.32455	0.034332	0.054779	-0.016327	0.1236	0.024872	-0.020142	0.00351	0.36453	0.004578	0.2861	-0.10025	-0.006561	-0.003967
13.304	0.005493	-0.059357	0.1001	0.007324	0.002899	-0.020447	0.065613	0.015259	-0.07843	-0.090179	-0.001373	-0.034943	-0.10925	0.22659	0.065765	-0.007019	-0.028534	-0.15396	-0.63095	0.047455	0.057526	-0.001526	0.13397	0.073395	-0.009766	-0.005188	0.25818	0.003815	0.19104	-0.13031	-0.005951	-0.004272
13.305	0.005035	0.015259	0.016174	-0.002289	0.020294	-0.059357	0.053558	0.012207	0.002136	0.054169	0.019073	-0.032806	0.17044	0.24216	0.076447	-0.018616	-0.006409	-0.1889	-0.67841	-0.02533	0.063477	-0.003052	0.14069	0.043335	-0.00351	-0.016632	0.61417	0.004272	-0.015259	-0.036469	-0.006561	-0.004883
13.306	-0.002136	-0.089417	0.081635	-0.00473	-0.005341	0.022888	-0.048065	0.018921	0.068054	0.13687	0.003815	-0.030212	1.0992	0.18249	0.025482	0	-0.010376	-0.19775	-0.31937	-0.14282	0.061035	-0.014496	0.10391	0.075531	0.009003	-0.005798	0.64941	0.004272	0.11704	0.11017	-0.002289	-0.008698
13.307	-0.000153	-0.10239	-0.01709	-0.003052	0.001678	-0.051575	-0.12665	0.003204	0.048828	0.12711	0.018616	-0.025177	0.36209	0.2652	0.016632	-0.009308	0.004883	-0.13947	-0.39688	-0.10773	0.060425	-0.009766	0.11322	0.11627	-0.000153	-0.001373	-0.14923	0.00885	0.17136	0.06958	-0.001068	-0.007782
13.308	0.011139	-0.15778	-0.0737	-0.007935	-0.01236	-0.30533	-0.15961	0.005493	-0.078125	-0.067139	0.020752	-0.013123	-0.16312	0.35355	0.013275	-0.008087	0.007629	-0.21759	-0.43503	0.020752	0.073853	0.007477	0.18631	0.10574	0.005188	-0.006866	-0.71945	0.001373	0.025482	-0.014343	-0.001831	-0.010376
13.309	0.010223	-0.15762	-0.066833	-0.005951	-0.012512	-0.071259	-0.22385	0.000153	-0.061035	-0.13977	-0.031738	-0.012665	-0.15671	0.26199	0.10101	0.009155	0.055695	-0.28732	-0.40497	0.06546	0.061188	-0.004272	0.21988	0.0737	0.008545	-0.010071	-0.20447	0.001221	-0.066833	-0.036469	0.000458	-0.017395
13.31	-0.009003	-0.12558	-0.26215	0.004883	-0.012817	0.092621	-0.16098	-0.011597	-0.002747	-0.069885	-0.050201	-0.02121	-0.49866	0.10757	0.06424	-0.00824	0.074615	-0.1857	-0.18814	0.069427	0.060272	-0.031281	0.2066	0.062714	-0.017548	-0.011597	-0.59586	0.00824	0.035858	-0.085449	-0.000153	-0.012817
13.311	-0.008392	-0.05722	-0.26825	-0.001831	-0.006409	0.13123	-0.01297	-0.009308	0.034637	-0.013123	-0.011139	-0.037231	-0.3302	0.10956	-0.013428	-0.006866	0.065308	-0.14145	-0.22278	-0.010834	0.049744	-0.027618	0.22476	-0.011597	-0.021515	-0.005493	-1.0248	0.009918	-0.009766	0.011444	-0.001373	-0.016327
13.312	-0.012817	0.053101	-0.1915	-0.001984	0.002289	0.23666	0.033417	-0.005341	0.010376	-0.003967	-0.007935	-0.029755	-0.075836	-0.075378	-0.091248	0.007477	0.037994	-0.20477	-0.16647	0.017548	0.046844	-0.024261	0.26581	-0.016479	-0.036621	-0.010223	-0.88242	0.009308	0.009613	0.025482	-0.001678	-0.014038
13.313	-0.027161	0.10666	-0.22324	-0.003357	-0.024567	0.32974	0.028992	0.002136	-0.044556	-0.020447	-0.025177	-0.029602	-0.070648	-0.13672	-0.054779	0.007935	0.003052	-0.20371	-0.1004	0.036163	0.034027	-0.049133	0.15518	-0.02655	-0.037994	-0.006561	-0.52231	0.003204	0.035553	0.024719	-0.005951	-0.00946
13.314	-0.013885	0.15274	-0.27588	0.013275	-0.090332	0.3656	0.00412	-0.00061	-0.041504	0.046844	-0.021057	-0.0354	0.028229	-0.079346	0.007629	0.009766	-0.015717	-0.215	-0.32867	-0.061493	0.037689	-0.065918	0.088959	-0.029602	-0.037537	-0.00412	-0.30579	0.002136	0.015869	0.079346	-0.001221	-0.020447
13.315	0.011749	0.12161	-0.16113	0.017548	-0.091248	-0.080566	-0.055237	-0.001068	0.019989	0.10513	-0.00946	-0.029602	0.27206	0.02121	0.061188	0.027924	-0.019073	-0.19836	-0.50674	-0.085449	0.042267	-0.065308	0.11353	-0.051575	-0.050201	-0.007172	0.10391	-0.000458	-0.014801	0.1149	-0.006409	-0.015564
13.316	0.030975	0.10544	-0.059204	0.025177	0.033417	-0.37033	-0.026093	0.029755	0.002899	0.12268	0.011292	-0.018311	0.30838	-0.16556	0.027618	0.01236	-0.028229	-0.16464	-0.45715	-0.021515	0.04425	-0.071411	0.016022	-0.02655	-0.045776	-0.007629	0.504	-0.003204	-0.026703	0.071716	-0.004578	-0.014038
13.317	0.029144	0.055084	0.066071	0.018921	0.13031	-0.095673	-0.015106	0.057983	-0.038452	0.094147	0.028687	-0.011597	0.39368	-0.21622	0.052948	-0.004578	-0.033112	-0.18753	-0.42313	0.077057	0.045471	-0.045624	0.0383	-0.043945	-0.031281	-0.013733	0.62332	-0.000763	-0.13596	0.019531	0.000153	-0.010376
13.318	0.020294	0.032196	0.22797	0.032959	0.085144	-0.078583	-0.063477	0.044098	-0.000305	0.059204	0.032501	-0.011749	-0.18524	-0.159	0.087585	-0.008392	-0.016785	-0.15152	-0.15732	0.083313	0.058441	-0.041656	0.056915	-0.0914	-0.013733	-0.007935	0.55313	-0.001068	-0.16754	-0.010834	-0.000916	-0.011597
13.319	0.028534	-0.028381	0.23743	0.017242	0.023041	-0.20309	-0.13428	0.025024	0.089874	0.01358	0.02594	-0.024567	-0.15839	-0.34668	0.11414	-0.00824	-0.018311	-0.16098	-0.47974	0.2063	0.075073	-0.025024	0.11566	-0.041656	-0.031891	-0.000458	0.48279	-0.00473	-0.14999	-0.031738	0	-0.011749
13.32	0.031891	-0.017242	0.25162	0.011292	0.020142	-0.11887	-0.15198	-0.014191	0.10971	-0.045471	0.007935	-0.017242	-0.59128	-0.54764	0.044556	-0.017548	-0.0177	-0.20309	-0.43945	0.11154	0.092316	-0.012207	0.18494	-0.017548	-0.025482	-0.014038	0.327	-0.00473	-0.16785	0.015411	-0.000916	-0.013428
13.321	0.023041	-0.013885	0.23407	0.009308	0.030975	0.06424	-0.12024	-0.03067	0.036316	-0.070496	-0.04425	-0.00824	-0.32867	-0.36591	-0.013123	-0.014343	-0.016022	-0.16861	-0.41626	0.029755	0.087891	-0.012207	0.24963	0.001984	-0.015106	-0.016174	0.15289	-0.003204	-0.19577	0.004578	-0.001526	-0.015717
13.322	0.005951	-0.10651	0.058441	0.025482	0.034027	0.079956	-0.013123	-0.037689	0.037231	-0.012512	-0.024414	-0.005951	0.41245	-0.15305	-0.097961	-0.017853	-0.00946	-0.16052	-0.50705	-0.083618	0.099182	-0.014343	0.27542	0.009613	-0.005493	-0.007324	0.4895	-0.010376	-0.062103	-0.10803	-0.001526	-0.016632
13.323	-0.003052	-0.16022	-0.14008	0.012512	0.028381	0.026245	0.033875	-0.044556	0.07431	0.023804	-0.025482	-0.025482	0.027618	0.18723	-0.005646	-0.014496	-0.011292	-0.1796	-0.46951	-0.13412	0.121	0.010376	0.2449	0.008545	-0.019531	-0.018158	0.94086	-0.010376	-0.067596	-0.078888	-0.003052	-0.016327
13.324	-0.003815	-0.16342	-0.098114	-0.007782	0.02182	-0.025482	0.003967	-0.009003	0.10727	0.035858	0.008392	-0.045624	-0.42664	0.2536	0.046234	0.004578	-0.014954	-0.12512	-0.37521	-0.1442	0.10452	0.018616	0.20691	-0.023499	-0.00946	-0.010681	0.37445	-0.003815	-0.094147	-0.087891	0.000916	-0.006104
13.325	0.00412	-0.12711	0.037079	-0.001678	0.027618	-0.1001	-0.03952	0.013733	0.11673	0.043488	-0.010223	-0.042419	-0.075836	0.22339	-0.005188	-0.009766	-0.01358	-0.033722	-0.19913	-0.043182	0.11749	0.008087	0.11856	-0.005798	-0.014343	0	-0.16998	-0.004272	0.068359	-0.12344	-0.002594	-0.007019
13.326	0.00351	-0.11032	-0.1709	0.000305	0.015411	-0.26443	0.007172	0.016022	0.14572	0.030212	-0.009003	-0.024872	0.084076	0.063629	-0.030518	0.005798	-0.016174	-0.048981	0.065918	0.048218	0.10498	-0.008698	0.077362	-0.0354	-0.007629	-0.004883	-0.052795	-0.001678	0.046692	-0.10223	0.001984	-0.010986
13.327	0.003052	-0.091095	-0.082703	-0.005341	0.00824	-0.12894	0.040588	0.0177	0.16235	0.046997	0.00885	0.02533	0.052948	0.12894	-0.081787	-0.005341	-0.007935	-0.034485	0.16464	0.03479	0.10971	-0.021057	0.05661	-0.052185	-0.025635	-0.01709	0.10254	-0.006714	-0.077209	-0.097504	-0.000305	-0.013123
13.328	-0.002441	-0.072479	0.09201	0.001373	-0.020142	-0.037079	0.062103	0.00824	0.1416	0.031128	0.004272	0.008392	0.10788	0.10651	-0.013733	0.005035	0.001678	-0.027466	0.44464	-0.034637	0.10223	-0.019989	0.044556	0.007782	-0.033417	-0.008087	-0.15015	-0.007629	0.023651	-0.037384	0.003662	-0.001373
13.329	-0.007935	-0.06485	0.020447	-0.006104	-0.045929	0.032196	0.076294	0.003357	0.090332	0.030518	-0.000458	0.002289	0.025635	-0.067749	-0.045471	-0.00412	-0.002441	-0.057983	-0.094757	-0.028839	0.11749	-0.001831	-0.062408	-0.085907	-0.005646	-0.011444	-0.45685	-0.007629	0.18417	-0.030975	0.001831	-0.004272
13.33	0.004883	0.030823	0.041809	-0.01358	-0.050507	0.013733	0.068054	-0.005646	0.13611	0.02655	0.004272	-0.012665	-0.11505	0.003357	0.002899	-0.001526	0.008545	-0.13046	-0.44647	-0.055084	0.11276	-0.002441	-0.048218	-0.087433	-0.003052	-0.012054	-0.51514	-0.010376	0.21316	-0.029755	0.001984	-0.001984
13.331	0.00473	0.12482	0.071716	0.001373	-0.026703	0.011444	0.060577	-0.011444	0.1265	0.01297	0.01358	-0.017853	-0.13107	0.05661	0.049744	-0.005798	0.020294	-0.048218	-0.26443	-0.092468	0.12451	-0.005493	-0.32684	-0.068817	-0.030365	-0.015564	-0.48157	-0.006256	0.09964	0.071259	0.002747	-0.011902
13.332	0.01236	0.11185	0.063477	0.014343	-0.015259	0.010986	0.028992	0.00473	-0.048981	0.016022	-0.001373	-0.013428	0.15228	0.072174	0.030212	0.010071	0.027771	-0.13229	-0.17105	-0.043793	0.11337	-0.027008	-0.3537	-0.050201	-0.037384	-0.014648	-0.16525	-0.01709	-0.045319	0.15854	0.002441	-0.010376
13.333	0.010376	0.084381	0.057678	0.013123	0.025635	0.08316	0.054016	0.001831	-0.20386	0.036926	0.003052	-0.010376	0.082855	0.1033	-0.011292	0.013123	0.057526	-0.095367	-0.29159	0.084076	0.11002	-0.013428	-0.28366	-0.094147	-0.036774	-0.015717	0.008698	-0.010834	-0.10361	0.17899	0.006409	-0.011444
13.334	0.002594	0.12894	0.081787	0.009613	0.041351	0.40268	0.050049	0.00946	-0.23941	0.045776	0.001678	0.003204	0.24368	0.15243	-0.039825	0.017548	0.048828	-0.075836	-0.30838	0.14862	0.11108	-0.023956	-0.13321	-0.13031	-0.033875	-0.014038	0.015869	-0.007324	-0.14084	0.094604	0.001831	-0.007629
13.335	-0.00412	0.24567	0.014648	0.019226	0.024872	0.401	0.013885	0.003815	-0.10986	0.033112	0.000916	-0.004425	0.14969	0.3067	-0.013885	0.005646	0.00885	-0.069733	-0.15762	0.14481	0.10681	-0.016022	-0.074463	-0.097809	-0.049591	-0.012207	0.11932	-0.013275	-0.24689	0.00412	0.001526	-0.006409
13.336	-0.016479	0.31204	0.067749	0.018921	-0.001831	0.14374	-0.016632	-0.01297	-0.002899	0.009613	-0.011444	-0.001526	-0.081024	0.25162	-0.009003	0.006714	-0.000305	-0.014343	0.049438	0.084686	0.097351	-0.009613	-0.000763	-0.11246	-0.041351	-0.011902	0.14267	-0.007172	-0.26047	-0.065308	0.007324	-0.012512
13.337	-0.019684	0.27863	0.10193	0.014191	-0.066071	0.12421	-0.00061	-0.015106	0.098267	0.034027	0.003052	-0.009613	0.007019	0.077209	-0.022583	-0.005341	0.002747	-0.050964	0.22034	0.024261	0.10162	-0.008698	0.060883	-0.1004	-0.021362	0.001678	-0.084229	-0.006409	0.014038	-0.19516	0.005188	0.002899
